<?xml version="1.0" standalone="no"?>
<!DOCTYPE svg PUBLIC "-//W3C//DTD SVG 20010904//EN"
 "http://www.w3.org/TR/2001/REC-SVG-20010904/DTD/svg10.dtd">
<svg version="1.0" xmlns="http://www.w3.org/2000/svg"
 width="512.000000pt" height="512.000000pt" viewBox="0 0 512.000000 512.000000"
 preserveAspectRatio="xMidYMid meet">

<g transform="translate(0.000000,512.000000) scale(0.100000,-0.100000)"
fill="#000000" stroke="none">
<path d="M1890 4914 c-895 -69 -1432 -395 -1489 -906 -27 -236 63 -483 233
-647 l35 -34 -142 -146 c-155 -160 -220 -248 -266 -362 -96 -242 -79 -496 51
-729 38 -67 109 -142 643 -678 330 -332 626 -624 657 -648 77 -60 198 -119
295 -145 158 -43 372 -27 525 38 149 63 172 84 873 784 l670 669 84 -10 c330
-42 554 -274 635 -660 9 -41 21 -156 26 -255 19 -339 41 -465 91 -529 40 -51
93 -27 138 62 86 171 135 522 135 982 1 289 -3 335 -51 525 -132 531 -540
1022 -1164 1401 -127 77 -383 203 -517 254 l-110 42 -491 492 c-270 271 -497
494 -504 495 -20 5 -308 8 -357 5z m-390 -759 c-200 -200 -362 -366 -360 -369
20 -19 258 -95 364 -116 l59 -12 348 348 349 349 853 -853 852 -852 -790 -788
c-609 -608 -803 -796 -845 -819 -131 -71 -277 -75 -410 -12 -59 29 -120 87
-657 623 -548 547 -594 596 -623 657 -43 94 -56 172 -43 260 20 123 47 165
242 362 l176 178 110 -41 c273 -103 647 -171 1098 -201 l168 -10 45 -44 c101
-98 275 -116 394 -40 113 72 169 198 148 331 -17 107 -76 187 -176 236 -59 29
-76 33 -147 33 -95 -1 -151 -22 -217 -83 l-43 -40 -150 9 c-778 47 -1283 224
-1422 498 -25 51 -28 65 -28 161 0 90 3 112 24 153 87 177 349 325 698 396 91
19 280 47 328 50 13 1 -108 -127 -345 -364z"/>
</g>
</svg>
